<svg xmlns="http://www.w3.org/2000/svg" width="714" height="292" viewBox="0 0 714 292">
  <path fill="#FFF" fill-rule="evenodd" d="M149.457272 106.54229L149.484225 106.5403C149.484225 106.5403 139.191178 90 115.489518 90 91.7888566 90 82.7296576 104.789688 82.7296576 104.789688 80.2769356 107.91095 78.2734301 111.507662 76.8698781 115.681281 61.7662217 118.88311 51 132.201688 51 148.070588 51 163.37054 61.5855369 176.826382 76.2469646 180.292792 76.6522577 180.389275 77.058549 180.454923 77.4638421 180.493715 78.5219965 180.652862 80.6492861 180.902523 83.5462333 180.902523L87.7259431 180.902523 87.7259431 168.831257 84.5624608 168.831257C82.1856065 168.831257 79.5911317 168.212574 78.3552873 167.910196 78.157632 167.845543 77.9589785 167.751049 77.7633198 167.690375 69.3939176 165.089323 63.4343122 157.020593 63.4343122 148.085508 63.4343122 137.403791 71.6609634 128.423946 82.16065 127.650096L86.6837609 127.312904 87.7518979 122.842876C89.8133024 114.244983 95.0611492 109.034923 101.927174 105.517784 107.409611 102.827212 119.19805 99.0624016 132.288218 107.382782 137.507115 111.085924 141.589994 115.92199 143.2491 122.838897L144.317237 127.308926 148.83935 127.642139C159.340035 128.415989 167.566686 137.387876 167.566686 148.070588 167.566686 158.155507 160.445107 166.653933 150.635218 168.277228 150.635218 168.277228 148.606756 168.49307 145.848566 168.49307 143.091376 168.49307 118.157864 168.486107 118.157864 168.486107 109.267371 168.486107 102.189716 161.236982 102.189716 152.211383 102.189716 143.185784 109.424098 135.844154 118.314591 135.844154 122.939524 135.844154 126.845711 137.77679 129.717702 140.881143L138.389576 131.760056C135.754173 129.004831 132.639605 126.757881 129.051863 125.30169 125.742635 123.957896 121.886361 123.222838 118.314591 123.222838 102.568056 123.222838 89.7564016 136.227101 89.7564016 152.211383 89.7564016 166.864802 100.565548 179.229495 114.901544 180.974139L115.120163 181C115.120163 181 146.930679 180.984085 148.065699 180.984085 151.579571 180.984085 155.168311 180.215209 155.168311 180.215209L155.510714 180.126683C169.929565 176.400665 180 163.218357 180 148.070588 180 132.201688 169.233778 118.88311 154.13112 115.681281 152.989112 112.288475 151.383912 109.270658 149.457272 106.54229zM198.262 165L205.672 126.468 212.692 126.468 212.302 131.85C215.812 128.496 220.648 125.766 226.186 125.766 231.724 125.766 234.376 128.184 235.078 132.24 238.588 128.808 243.658 125.766 249.43 125.766 255.748 125.766 258.712 129.042 258.712 135.048 258.712 136.452 258.556 138.012 258.244 139.65L253.33 165 244.828 165 249.586 140.508C249.82 139.182 249.976 138.012 249.976 136.92 249.976 134.112 248.806 132.708 246.154 132.708 242.722 132.708 238.51 135.75 234.766 140.352L230.008 165 221.584 165 226.342 140.508C226.576 139.182 226.732 138.012 226.732 136.92 226.732 134.112 225.562 132.708 222.832 132.708 219.478 132.708 215.422 135.516 211.444 140.352L206.686 165 198.262 165zM272.206 165L267.058 126.468 275.872 126.468 278.134 144.954C278.68 149.79 278.836 152.91 278.992 157.902L279.07 157.902C281.254 152.91 282.658 149.79 285.076 144.954L294.514 126.468 303.64 126.468 280.552 169.29C275.014 179.664 271.738 182.394 263.236 182.394 261.208 182.394 259.336 182.082 257.542 181.692L258.79 175.296C260.428 175.53 262.066 175.686 263.548 175.686 266.98 175.686 269.242 174.672 272.362 169.212L274.702 165 272.206 165zM345.37 170.304L337.96 174.672 331.486 164.22C329.146 165.39 326.104 166.092 321.97 166.092 311.05 166.092 304.966 161.334 304.966 149.244 304.966 145.812 305.356 142.302 306.214 137.934 310.27 117.108 319.006 109.698 332.89 109.698 343.732 109.698 349.894 114.456 349.894 126.546 349.894 129.978 349.426 133.488 348.568 137.856 346.306 149.79 342.796 156.108 338.662 160.164L345.37 170.304zM341.158 127.014C341.158 119.76 338.194 116.562 331.876 116.562 323.608 116.562 318.07 122.256 314.95 138.09 314.248 141.834 313.702 145.656 313.702 148.776 313.702 156.03 316.666 159.228 322.984 159.228 331.252 159.228 336.79 153.612 339.91 137.7 340.612 133.956 341.158 130.134 341.158 127.014zM354.028 165L364.558 110.79 375.4 110.79 385.306 141.132C386.866 146.124 388.114 150.18 389.44 155.64L389.518 155.562C390.064 150.258 390.766 145.578 391.624 141.132L397.552 110.79 405.274 110.79 394.744 165 383.824 165 373.84 134.658C372.28 129.822 371.11 125.532 369.862 120.15L369.706 120.228C369.16 125.454 368.536 130.134 367.678 134.658L361.75 165 354.028 165zM401.998 165L428.752 110.79 441.388 110.79 447.238 165 438.424 165 436.864 150.726 417.676 150.726 410.656 165 401.998 165zM420.484 144.018L436.63 144.018 435.226 130.056C434.68 125.142 434.29 121.164 433.9 116.406L433.822 116.406C431.56 121.242 429.688 125.142 427.114 130.212L420.484 144.018zM454.414 165L464.944 110.79 479.14 110.79C491.542 110.79 495.832 114.924 495.832 122.1 495.832 136.686 485.614 142.926 472.666 142.926L467.284 142.926 462.994 165 454.414 165zM468.532 136.218L473.68 136.218C480.622 136.218 487.096 132.24 487.096 123.426 487.096 119.37 484.834 117.498 478.048 117.498L472.198 117.498 468.532 136.218zM520.168 157.98L520.48 164.376C517.36 165.156 513.772 165.78 510.418 165.78 501.916 165.78 496.612 162.504 496.612 153.144 496.612 150.96 496.768 149.088 497.314 145.968 499.966 131.304 507.766 125.688 517.594 125.688 520.714 125.688 523.678 126.156 526.018 126.858L524.068 133.176C522.118 132.63 520.246 132.396 518.14 132.396 512.602 132.396 508.078 135.36 505.894 145.812 505.348 148.23 505.192 150.336 505.192 152.13 505.192 157.278 507.688 159.15 512.446 159.15 514.864 159.15 517.282 158.76 520.168 157.98zM527.5 165L538.654 107.436 547.078 107.436 535.924 165 527.5 165zM584.206 138.558C584.206 140.586 583.972 142.77 583.426 145.656 580.696 160.476 573.442 166.092 562.678 166.092 553.942 166.092 548.716 162.582 548.716 152.91 548.716 150.96 548.872 148.698 549.418 145.812 552.148 131.07 559.402 125.376 570.166 125.376 578.902 125.376 584.206 128.886 584.206 138.558zM575.626 139.182C575.626 133.8 573.442 132.084 569.23 132.084 563.848 132.084 560.104 135.048 557.998 145.812 557.53 148.074 557.218 150.648 557.218 152.364 557.218 157.668 559.48 159.462 563.692 159.462 568.996 159.462 572.818 156.42 574.924 145.734 575.392 143.394 575.626 140.82 575.626 139.182zM596.53 126.468L604.954 126.468 600.274 151.038C600.04 152.286 599.884 153.534 599.884 154.548 599.884 157.434 601.132 158.76 604.096 158.76 607.528 158.76 612.052 155.952 616.03 151.116L620.788 126.468 629.212 126.468 621.802 165 614.782 165 615.172 159.696C611.662 163.05 606.358 165.78 600.742 165.78 594.19 165.78 591.148 162.504 591.148 156.42 591.148 155.094 591.304 153.534 591.616 151.818L596.53 126.468zM657.682 165L658.072 159.774C654.64 163.128 649.804 165.78 644.968 165.78 638.65 165.78 634.516 161.646 634.516 153.612 634.516 136.062 644.11 125.766 655.498 125.766 658.774 125.766 661.582 126.702 663.688 128.028L663.844 127.95C664.156 124.83 664.468 122.334 665.014 119.526L667.354 107.436 675.856 107.436 664.702 165 657.682 165zM658.852 151.272L662.128 134.736C660.1 133.332 658.15 132.474 655.42 132.474 648.088 132.474 643.252 142.224 643.252 152.364 643.252 156.654 644.89 158.76 647.854 158.76 650.896 158.76 654.952 156.03 658.852 151.272z"/>
</svg>
